<?xml version="1.0" standalone="no"?>
<!DOCTYPE svg PUBLIC "-//W3C//DTD SVG 20010904//EN"
 "http://www.w3.org/TR/2001/REC-SVG-20010904/DTD/svg10.dtd">
<svg version="1.0" xmlns="http://www.w3.org/2000/svg"
 width="190.000000pt" height="190.000000pt" viewBox="0 0 190.000000 190.000000"
 preserveAspectRatio="xMidYMid meet">
<metadata>
Created by potrace 1.11, written by Peter Selinger 2001-2013
</metadata>
<g transform="translate(0.000000,190.000000) scale(0.100000,-0.100000)"
fill="#000000" stroke="none">
<path d="M634 1159 c-3 -5 -9 -7 -14 -4 -4 3 -27 -2 -51 -10 -173 -61 -209
-222 -69 -310 89 -56 212 -66 385 -30 82 17 99 24 77 32 -7 3 -46 34 -88 69
-101 86 -141 101 -246 96 -33 -2 -38 -22 -5 -22 12 -1 34 -6 49 -13 28 -13
122 -96 116 -103 -2 -2 -28 -5 -57 -7 -157 -12 -258 75 -197 168 44 67 200 81
259 24 194 -185 259 -239 289 -239 8 0 19 -5 26 -12 7 -7 49 -12 109 -12 79
-1 107 3 143 20 89 41 141 123 125 196 -14 62 -125 148 -192 148 -12 0 -24 4
-27 8 -6 10 -87 9 -103 -1 -8 -5 -13 -3 -13 4 0 8 -4 8 -12 1 -7 -5 -36 -13
-65 -17 -28 -4 -72 -12 -98 -19 l-47 -12 92 -76 c62 -51 107 -80 139 -89 51
-15 113 -15 139 1 14 8 11 9 -13 10 -17 0 -44 8 -62 18 -37 20 -117 92 -110
98 3 3 36 6 75 8 90 4 165 -28 189 -79 15 -30 14 -36 -3 -71 -24 -48 -71 -76
-126 -75 -91 1 -120 16 -237 126 -129 119 -177 150 -272 171 -46 10 -99 11
-105 3z"/>
</g>
</svg>
